<!-- icon666.com - MILLIONS vector ICONS FREE --><svg clip-rule="evenodd" fill-rule="evenodd" stroke-linejoin="round" stroke-miterlimit="2" viewBox="0 0 64 64" xmlns="http://www.w3.org/2000/svg"><path d="m30.269 9.822c-13.246 0-24 10.754-24 24 0 13.245 10.754 24 24 24s24-10.755 24-24c0-13.246-10.754-24-24-24" fill="#69b0ff"></path><path d="m25.985 57.44c-11.206-2.023-19.716-11.835-19.716-23.618 0-13.246 10.754-24 24-24 4.487 0 8.689 1.234 12.283 3.382-1.389-.251-2.821-.382-4.283-.382-13.246 0-24 10.754-24 24 0 8.758 4.701 16.427 11.716 20.618" fill="#a2d4ff"></path><path d="m53.327 3.822c-3.863 0-7 3.136-7 7 0 3.863 3.137 7 7 7s7-3.137 7-7c0-3.864-3.137-7-7-7" fill="#c0f19e"></path><g fill="#394251"><path d="m30.27 13.822c-11.028 0-20 8.972-20 20s8.972 20 20 20 20-8.972 20-20-8.972-20-20-20m0 44c-13.234 0-24-10.766-24-24s10.766-24 24-24 24 10.766 24 24-10.766 24-24 24" fill-rule="nonzero"></path><path d="m51.728 53.121c-6.933 0-17.492-4.033-27.078-9.567-7.269-4.197-13.633-9.017-17.921-13.571-6.171-6.555-6.022-10.432-4.811-12.53 1.81-3.136 6.683-3.791 14.09-1.894 1.07.274 1.716 1.364 1.442 2.434s-1.362 1.716-2.434 1.441c-6.631-1.698-9.201-.73-9.634.019-.404.699-.033 3.228 4.26 7.788 4.027 4.278 10.067 8.841 17.008 12.849 16.102 9.297 27.279 10.228 28.507 8.099.431-.747-.014-3.453-4.789-8.34-.772-.79-.758-2.056.032-2.828s2.057-.758 2.829.033c5.335 5.46 7.2 10.003 5.392 13.135-1.18 2.042-3.637 2.932-6.893 2.932" fill-rule="nonzero"></path><path d="m14.25 6.822c1.103 0 2 .896 2 2 0 1.103-.897 2-2 2-1.104 0-2-.897-2-2 0-1.104.896-2 2-2"></path><path d="m53.328 7.822c-1.654 0-3 1.346-3 3s1.346 3 3 3 3-1.346 3-3-1.346-3-3-3m0 10c-3.86 0-7-3.14-7-7s3.14-7 7-7 7 3.14 7 7-3.14 7-7 7" fill-rule="nonzero"></path><path d="m42.25 34.822c1.103 0 2 .896 2 2 0 1.103-.897 2-2 2-1.104 0-2-.897-2-2 0-1.104.896-2 2-2"></path></g></svg>